<svg 
    xmlns:math="http://www.w3.org/2005/xpath-functions/math"
    xmlns:xlink="http://www.w3.org/1999/xlink"
    xmlns="http://www.w3.org/2000/svg"
    width="1280"
    height="720">

    <defs>
        <svg id="flag">
            <polygon points="40,25 75,35 40,45" fill="#f4a261" />
            <polygon points="40,20 40,75 45,75 45,80 30,80 30,75 35,75 35,20 " fill="#313134" />
        </svg>
        <svg id="mine" fill="#f4a261">
            <circle cx="40" cy="40" r="32" />
            <rect width="16" height="16" x="64" y="32" />
            <rect width="16" height="16" x="32" y="64" />
            <rect width="16" height="16" x="0" y="32" />
            <rect width="16" height="16" x="32" y="0" />

            <rect width="16" height="16" x="8" y="8" />
            <rect width="16" height="16" x="8" y="56" />
            <rect width="16" height="16" x="56" y="8" />
            <rect width="16" height="16" x="56" y="56" />
        </svg>
        <svg id="cell">
            <rect width="100" height="100" fill="#e9c46a"/> />
            <text x="30" y="80" font-size="80" font-family="impact">3</text>
        </svg>
        <svg id="cover">
            <rect width="100" height="100" fill="#2a9d8f"/> />
            <polygon points="0,0 15,15 15,85 85,85 100,100 0, 100" fill="#000000" fill-opacity="0.2" />
            <polygon points="0,0 15,15 85,15 85,85 100,100 100,0" fill="#ffffff" fill-opacity="0.2" />
        </svg>
    </defs>

    <g id="background">
        <rect width="1280" height="720" fill="#264653"/> />
    </g>

    <g id="mines"></g>
    <g id="cells"></g>
    <g id="covers"></g>

    <script xlink:href="game.js" />
</svg>