<svg 
    xmlns:math="http://www.w3.org/2005/xpath-functions/math"
    xmlns:xlink="http://www.w3.org/1999/xlink"
    xmlns="http://www.w3.org/2000/svg"
    width="1280"
    height="720">

    <!-- <svg xmlns="http://www.w3.org/2000/svg"
    id="mine"
    x="0"
    y="0"
    >
        <g>
            <circle cx="40" cy="40" r="32" />
            <rect width="16" height="16" x="64" y="32" />
            <rect width="16" height="16" x="32" y="64" />
            <rect width="16" height="16" x="0" y="32" />
            <rect width="16" height="16" x="32" y="0" />

            <rect width="16" height="16" x="8" y="8" />
            <rect width="16" height="16" x="8" y="56" />
            <rect width="16" height="16" x="56" y="8" />
            <rect width="16" height="16" x="56" y="56" />
        </g>
    </svg> -->

    <defs>
        <g id="mine">
            <circle cx="40" cy="40" r="32" />
            <rect width="16" height="16" x="64" y="32" />
            <rect width="16" height="16" x="32" y="64" />
            <rect width="16" height="16" x="0" y="32" />
            <rect width="16" height="16" x="32" y="0" />

            <rect width="16" height="16" x="8" y="8" />
            <rect width="16" height="16" x="8" y="56" />
            <rect width="16" height="16" x="56" y="8" />
            <rect width="16" height="16" x="56" y="56" />
        </g>
        <g id="cell">
            <rect width="100" height="100" fill="gray"/> />
            <text x="30" y="80" font-size="80" font-family="impact"
            ></text>
        </g>
        <g id="background">
            <rect width="1280" height="720" fill="darkgray"/> />
        </g>
    </defs>

    <use x="0" y="0" href="#background" id="bg0" />

    <use x="9999" y="0" href="#cell" id="c0,0" />
    <use x="9999" y="0" href="#cell" id="c0,1" />
    <use x="9999" y="0" href="#cell" id="c0,2" />
    <use x="9999" y="0" href="#cell" id="c0,3" />
    <use x="9999" y="0" href="#cell" id="c0,4" />

    <use x="9999" y="0" href="#cell" id="c1,0" />
    <use x="9999" y="0" href="#cell" id="c1,1" />
    <use x="9999" y="0" href="#cell" id="c1,2" />
    <use x="9999" y="0" href="#cell" id="c1,3" />
    <use x="9999" y="0" href="#cell" id="c1,4" />

    <use x="9999" y="0" href="#cell" id="c2,0" />
    <use x="9999" y="0" href="#cell" id="c2,1" />
    <use x="9999" y="0" href="#cell" id="c2,2" />
    <use x="9999" y="0" href="#cell" id="c2,3" />
    <use x="9999" y="0" href="#cell" id="c2,4" />

    <use x="9999" y="0" href="#cell" id="c3,0" />
    <use x="9999" y="0" href="#cell" id="c3,1" />
    <use x="9999" y="0" href="#cell" id="c3,2" />
    <use x="9999" y="0" href="#cell" id="c3,3" />
    <use x="9999" y="0" href="#cell" id="c3,4" />

    <use x="9999" y="0" href="#cell" id="c4,0" />
    <use x="9999" y="0" href="#cell" id="c4,1" />
    <use x="9999" y="0" href="#cell" id="c4,2" />
    <use x="9999" y="0" href="#cell" id="c4,3" />
    <use x="9999" y="0" href="#cell" id="c4,4" />

    <use x="9999" y="0" href="#cell" id="c5,0" />
    <use x="9999" y="0" href="#cell" id="c5,1" />
    <use x="9999" y="0" href="#cell" id="c5,2" />
    <use x="9999" y="0" href="#cell" id="c5,3" />
    <use x="9999" y="0" href="#cell" id="c5,4" />

    <use x="9999" y="0" href="#cell" id="c6,0" />
    <use x="9999" y="0" href="#cell" id="c6,1" />
    <use x="9999" y="0" href="#cell" id="c6,2" />
    <use x="9999" y="0" href="#cell" id="c6,3" />
    <use x="9999" y="0" href="#cell" id="c6,4" />

    <use x="9999" y="0" href="#cell" id="c7,0" />
    <use x="9999" y="0" href="#cell" id="c7,1" />
    <use x="9999" y="0" href="#cell" id="c7,2" />
    <use x="9999" y="0" href="#cell" id="c7,3" />
    <use x="9999" y="0" href="#cell" id="c7,4" />
    
    <use x="9999" y="0" href="#mine" id="m0" />
    <use x="9999" y="0" href="#mine" id="m1" />
    <use x="9999" y="0" href="#mine" id="m2" />
    <use x="9999" y="0" href="#mine" id="m3" />
    <use x="9999" y="0" href="#mine" id="m4" />
    <use x="9999" y="0" href="#mine" id="m5" />
    <use x="9999" y="0" href="#mine" id="m6" />
    <use x="9999" y="0" href="#mine" id="m7" />
    <use x="9999" y="0" href="#mine" id="m8" />
    <use x="9999" y="0" href="#mine" id="m9" />
    <use x="9999" y="0" href="#mine" id="m10"/>
    <use x="9999" y="0" href="#mine" id="m11"/>
    <use x="9999" y="0" href="#mine" id="m12"/>
    <use x="9999" y="0" href="#mine" id="m13"/>
    <use x="9999" y="0" href="#mine" id="m14"/>
    <use x="9999" y="0" href="#mine" id="m15"/>

    <script xlink:href="game.js" />
</svg>